<?xml version="1.0" encoding="utf-8"?>
<!-- Generator: Adobe Illustrator 26.3.1, SVG Export Plug-In . SVG Version: 6.00 Build 0)  -->
<svg version="1.1" id="Ebene_1" xmlns="http://www.w3.org/2000/svg" xmlns:xlink="http://www.w3.org/1999/xlink" x="0px" y="0px"
	 width="820px" height="132px" viewBox="0 0 820 132" enable-background="new 0 0 820 132" xml:space="preserve">
<g>
	<defs>
		<rect id="SVGID_1_" y="1" width="820" height="130.329"/>
	</defs>
	<clipPath id="SVGID_00000181768873987222296250000006719517690604860852_">
		<use xlink:href="#SVGID_1_"  overflow="visible"/>
	</clipPath>
	<path clip-path="url(#SVGID_00000181768873987222296250000006719517690604860852_)" fill="#FABA20" d="M430.912,6.114
		c-9.441-0.108-51.515-2.811-59.587-3.166c-5.558-0.244-10.135,0.544-14.444,0.489c-4.943-0.058-7.608,0.538-11.993,0.538
		c-1.748-0.451-0.987-0.8-2.517-0.856c-0.066,0.457,0.445,0.448,0.656,0.675c-2.552-0.614-3.688,0.783-5.53,0.372
		c0.483-0.032,1.066,0.006,0.893-0.483c-10.665,1.138-188.856-2.706-201.003-2.471c-7.785,0.151-15.671,1.065-23.696,0.841
		c-1.524-0.044-2.792-0.122-4.325-0.116C88.581,1.973,54.248,1.906,38.684,1.924c-0.631-0.308-2.12-1.161-2.514-0.861
		c0.334,0.049,0.76,0.364,0.338,0.454c-8.785,0.067-15.084,0.419-23.109,0.367c-0.47,0.928-1.549,1.435-2.022,2.363
		c0.505,6.405,0.88,13.288,2.006,18.692c2.748,2.733,3.192,8.215,5.546,10.506c0.271,0.501,1.464,0.259,1.593,0.882
		c-0.331,1.315,2.435,2.791,3.318,4.077c-1.549,0.62,1.489,1.531-0.17,2.322c1.729,0.605,3.019,1.577,3.571,3.146
		c1.732,0.375,4.599,1.473,5.435,3.332c0.874,0.017,2.101-0.256,2.183,0.405c-1.151,0.53-2.218,1.123-2.971,1.929
		c-0.05-0.364-0.006-0.803-0.656-0.681c-2.722,0.378-3.782,1.551-6.05,2.008c-0.552,0.116-1.476-0.143-2.158,0.055
		c-1.12,0.329-4.189,1.691-5.126,1.985c-2.022,0.64-5.889,1.225-6.277,3.402c-0.167,0.937,0.855,1.801,1.082,2.75
		c0.448,1.871-0.274,3.932-0.268,6.024c0.022,4.994,2.236,10.075,3.309,14.493c0.032,1.231-3.58,2.282-3.334,1.01
		c-1.145,0.25-2.735,1.566-3.965,0.797c-0.338,0.786-4.057,0.384-5.81,0.844c-0.871,0.8-1.7,1.627-2.631,2.381
		c1.539,6.781-0.495,17.714,3.498,23.281c0.047,3.032,1.221,5.142,1.691,7.825c-0.101,0.646,1.669-0.224,1.571,0.419
		c-0.016,3.871,0.899,8.181,6.29,7.479c0.527,1.752,4.129,0.067,4.391,1.275c1.845-0.297,4.618,0.629,7.107,0.279
		c-0.079,0.311-0.41,0.451-0.256,0.931c3.59-1.374,6.911,0.57,10.832,0.646c0.754,0.015,1.442-0.308,2.142-0.285
		c13.056,0.335,39.85,2.025,52.225,1.33c0.215,0.477,0.53,0.867,1.58,0.658c0.861-0.026-0.767-0.611,0.59-0.477
		c21.712,0.387,40.03,0.349,58.918,0.329c-0.53,0,0.044-0.215,0.603-0.247c8.744-0.527,190.102,0.34,199.508-0.37
		c6.634,1.557,15.091-0.972,22.185-0.34c-0.543,0.067-1.555-0.192-1.202,0.495c6.432-1.144,12.198-0.355,19.097-0.265
		c0.274-0.402,0.94-0.53,1.505-0.733c4.422-0.006,16.075,0.271,21.286-0.428c0.066,0.271-0.013,0.658,0.35,0.684
		c4.492-1.344,12.984-0.858,18.778-0.483c4.025-1.211,8.807-0.448,14.167-0.367c3.224,0.049,9.142-0.955,11.716-0.07
		c3.691-0.762-8.675-0.084-4.883,0.076c1.177,0.006,1.451-0.623,2.423-0.757c4.53,0.998,10.239-0.375,16.012-0.413
		c11.059-0.064,23.236,1.106,31.462,0.116c0.975-0.23,0.672,0.582,1.268,0.661c10.252-1.013,22.806,0.239,32.052-0.364
		c0.571,0.18,0.883,0.57,1.577,0.655c25.081,0.061,186.099,1.074,212.091,2.194c-0.401,0.384-1.054,0.599-0.839,1.411
		c1.394,0.652,1.612-0.178,2.782,0.16c0.164,0.434-0.338,1.4,0.685,1.141c3.558-0.061,6.091,0.308,9.53-0.48
		c6.224,1.618,14.551,0.102,22.532,0.343c9.779,0.297,15.154-0.442,24.882-0.099c0.656,0.116-17.501,0.544-16.535,0.407
		c8.435-1.409,13.797,0.32,23.321-0.527c3.867-1.141,2.287-4.013,2.356-7.232c0.025-1.243,0.757-2.445,0.71-3.725
		c-0.117-3.041-1.347-6.324-0.833-9.004c-0.221-0.742-0.672-0.413-0.965-0.664c1.284-1.196-0.867-4.348,1.233-5.355
		c-2.542-1.021-1.148-2.404-1.192-4.601c-2.177-2.436-1.227-5.043-2.353-8.731c-1.189-0.384-1.624-0.262-1.621-1.347
		c-1.259-0.268-3.281,0.463-4.927,0.128c-0.325-0.067-0.697-0.664-0.962-0.669c-0.196-0.003-0.968,0.469-1.205,0.495
		c-3.751,0.378-2.908,0.338-4.886-0.649c-0.016-0.23-0.265-0.265-0.334-0.448c0.23-2.273,0.946-5.844-0.457-7.857
		c1.186-1.764,0.912-2.706,0.643-4.875c1.36-2.188,4.413-1.825,7.552-2.741c0.211-0.466,0.091-1.513,0.871-0.952
		c0.357-1.228-1.621-1.705,0.189-2.09c-2.609-3.76,1.666-9.024,0.091-14.344c0.284-0.247,0.584-0.483,0.883-0.719
		c-0.123-2.156-0.249-4.313-0.375-6.469c-0.041-0.434,0.208-0.495,0.603-0.247c-2.517-1.929-0.098-5.745-2.29-7.578
		c1.375-1.828-0.953-2.963-0.826-3.678c0.028-0.175,0.836,0.055,0.59-0.477c-0.133-0.291-0.763-0.096-0.953-0.442
		c-0.483-0.873-0.978-10.934-2.643-11.734c1.183-2.622,1.208-3.873-24.488-4.563c-1.448-0.035-3.984,0.023-5.665-0.017
		c-3.454-0.084,11.205-3.003,12.331-2.602c0,0-4.369-7.706-4.35-9.083c-0.445-0.69-0.716-4.359-1.009-5.171
		c-3.729-0.172-8.116,0.073-11.87-0.041c-0.801-0.023-4.602,0.8-5.407,0.672c-2.618-0.413-43.399-0.477-46.395-0.503
		c-19.349-0.16-74.076,0.093-88.744,0.265c-6.511,0.076-13.16,1.103-19.444,1.382c-10.145,0.451-19.595,2.066-29.286,0.678
		c-4.145,1.633-73.65-2.651-79.164-2.427c-6.154,0.25-12.438,0.338-18.151,0.701c-3.848,0.239-7.056,0.023-10.485,0.038
		c-0.975,0.003-2.085,0.556-3.05,0.541c-7.009-0.096-12.911-0.774-19.671-0.605c-5.249,0.131,7.126-0.247,1.864,0.541
		c-13.583-0.955-4.634,1.897-20.74,0.891C432.019,5.724,431.82,5.882,430.912,6.114"/>
</g>
</svg>
